<svg width="96" height="137" viewBox="0 0 96 137" fill="none" xmlns="http://www.w3.org/2000/svg">
<path d="M23.248 7.014H6.814V130.186H26.734V51.004V50.506C26.734 50.2847 26.7893 50.008 26.9 49.676C27.1213 49.344 27.3427 49.1227 27.564 49.012C28.1173 48.68 28.394 48.514 28.394 48.514H29.39C29.6113 48.514 29.888 48.6247 30.22 48.846C30.552 48.9567 30.7733 49.178 30.884 49.51L31.216 49.676L68.068 120.06L70.724 124.21C72.052 126.313 73.546 127.862 75.206 128.858C76.9767 129.743 79.6327 130.186 83.174 130.186H91.474C92.138 130.186 92.6913 130.463 93.134 131.016C93.5767 131.459 93.798 132.012 93.798 132.676C93.798 133.34 93.5767 133.893 93.134 134.336C92.6913 134.779 92.138 135 91.474 135H83.174C79.19 135 75.87 134.391 73.214 133.174C70.6687 131.846 68.4553 129.688 66.574 126.7L63.918 122.716V122.55L31.548 60.466V132.676C31.548 133.34 31.2713 133.893 30.718 134.336C30.2753 134.779 29.722 135 29.058 135H4.324C3.66 135 3.10667 134.779 2.664 134.336C2.22133 133.893 2 133.34 2 132.676V4.524C2 3.85999 2.22133 3.30666 2.664 2.86399C3.10667 2.42133 3.66 2.2 4.324 2.2H23.248C26.0147 2.2 28.394 2.64266 30.386 3.52799C32.4887 4.30266 34.1487 5.35399 35.366 6.68199C36.694 8.00999 37.9667 9.78066 39.184 11.994L89.15 102.464V7.014H68.4V34.902C68.4 35.566 68.1787 36.1193 67.736 36.562C67.2933 37.0047 66.74 37.226 66.076 37.226C65.6333 37.226 65.1907 37.1153 64.748 36.894C64.416 36.6727 64.1393 36.396 63.918 36.064C63.6967 35.732 63.586 35.3447 63.586 34.902V4.524C63.586 3.85999 63.8073 3.30666 64.25 2.86399C64.8033 2.42133 65.412 2.2 66.076 2.2H91.474C92.138 2.2 92.6913 2.42133 93.134 2.86399C93.5767 3.30666 93.798 3.85999 93.798 4.524V111.594V112.092C93.798 112.313 93.6873 112.59 93.466 112.922C93.3553 113.254 93.134 113.475 92.802 113.586C92.802 113.586 92.7467 113.641 92.636 113.752C92.304 113.973 92.0827 114.084 91.972 114.084H91.308C90.976 114.084 90.644 113.973 90.312 113.752C89.8693 113.531 89.5927 113.309 89.482 113.088L89.316 112.756L35.034 14.318C33.4847 11.5513 31.88 9.66999 30.22 8.67399C28.6707 7.56733 26.3467 7.014 23.248 7.014Z" fill="#FF6A8E"/>
<path d="M6.814 7.014V5.014H4.814V7.014H6.814ZM6.814 130.186H4.814V132.186H6.814V130.186ZM26.734 130.186V132.186H28.734V130.186H26.734ZM26.9 49.676L25.2359 48.5666L25.0873 48.7895L25.0026 49.0435L26.9 49.676ZM27.564 49.012L28.4584 50.8009L28.5271 50.7665L28.593 50.727L27.564 49.012ZM28.394 48.514V46.514H27.84L27.365 46.799L28.394 48.514ZM30.22 48.846L29.1106 50.5101L29.3334 50.6587L29.5875 50.7433L30.22 48.846ZM30.884 49.51L28.9866 50.1425L29.2486 50.9283L29.9895 51.2988L30.884 49.51ZM31.216 49.676L32.9878 48.7483L32.6882 48.176L32.1105 47.8872L31.216 49.676ZM68.068 120.06L66.2962 120.988L66.3365 121.065L66.3835 121.138L68.068 120.06ZM70.724 124.21L72.415 123.142L72.4085 123.132L70.724 124.21ZM75.206 128.858L74.177 130.573L74.2429 130.613L74.3116 130.647L75.206 128.858ZM93.134 131.016L91.5723 132.265L91.6415 132.352L91.7198 132.43L93.134 131.016ZM73.214 133.174L72.2889 134.947L72.3342 134.971L72.3807 134.992L73.214 133.174ZM66.574 126.7L68.2665 125.634L68.2526 125.612L68.2381 125.591L66.574 126.7ZM63.918 122.716H61.918V123.322L62.2539 123.825L63.918 122.716ZM63.918 122.55H65.918V122.06L65.6914 121.625L63.918 122.55ZM31.548 60.466L33.3214 59.5413L29.548 60.466H31.548ZM30.718 134.336L29.4686 132.774L29.3821 132.843L29.3038 132.922L30.718 134.336ZM2.664 2.86399L1.2498 1.44977L1.24979 1.44978L2.664 2.86399ZM30.386 3.52799L29.5737 5.35562L29.6334 5.38212L29.6946 5.40468L30.386 3.52799ZM35.366 6.68199L33.8917 8.03344L33.9211 8.06547L33.9518 8.0962L35.366 6.68199ZM39.184 11.994L37.4316 12.9578L37.4333 12.9609L39.184 11.994ZM89.15 102.464L87.3993 103.431L91.15 102.464H89.15ZM89.15 7.014H91.15V5.014H89.15V7.014ZM68.4 7.014V5.014H66.4V7.014H68.4ZM67.736 36.562L66.3218 35.1478L66.3218 35.1478L67.736 36.562ZM64.748 36.894L63.6386 38.5581L63.7422 38.6272L63.8536 38.6829L64.748 36.894ZM63.918 36.064L62.2539 37.1734L62.2539 37.1734L63.918 36.064ZM64.25 2.86399L63.0006 1.30224L62.9141 1.37145L62.8358 1.44978L64.25 2.86399ZM93.134 2.86399L94.5482 1.44978L94.5482 1.44977L93.134 2.86399ZM93.466 112.922L91.8019 111.813L91.6533 112.035L91.5686 112.29L93.466 112.922ZM92.802 113.586L92.1695 111.689L91.7217 111.838L91.3878 112.172L92.802 113.586ZM92.636 113.752L93.7454 115.416L93.9102 115.306L94.0502 115.166L92.636 113.752ZM90.312 113.752L91.4214 112.088L91.3178 112.019L91.2064 111.963L90.312 113.752ZM89.482 113.088L87.6931 113.982L87.6931 113.982L89.482 113.088ZM89.316 112.756L91.1049 111.862L91.0868 111.826L91.0674 111.79L89.316 112.756ZM35.034 14.318L36.7854 13.3522L36.779 13.3408L35.034 14.318ZM30.22 8.67399L29.0575 10.3015L29.1225 10.3479L29.191 10.389L30.22 8.67399ZM23.248 5.014H6.814V9.014H23.248V5.014ZM4.814 7.014V130.186H8.814V7.014H4.814ZM6.814 132.186H26.734V128.186H6.814V132.186ZM28.734 130.186V51.004H24.734V130.186H28.734ZM28.734 51.004V50.506H24.734V51.004H28.734ZM28.734 50.506C28.734 50.5571 28.7282 50.5672 28.7367 50.5247C28.7448 50.4843 28.7623 50.4136 28.7974 50.3085L25.0026 49.0435C24.8587 49.4754 24.734 49.9822 24.734 50.506H28.734ZM28.5641 50.7854C28.5913 50.7446 28.6127 50.7159 28.6277 50.6971C28.6429 50.6782 28.6493 50.6721 28.6462 50.6752C28.6432 50.6783 28.6275 50.6937 28.598 50.7158C28.5684 50.7379 28.5221 50.769 28.4584 50.8009L26.6696 47.2231C26.0015 47.5572 25.5441 48.1044 25.2359 48.5666L28.5641 50.7854ZM28.593 50.727C28.5978 50.7241 28.6012 50.7221 28.6059 50.7192C28.6119 50.7156 28.6128 50.7151 28.6187 50.7115C28.6198 50.7109 28.6209 50.7103 28.6219 50.7096C28.623 50.709 28.624 50.7084 28.6251 50.7077C28.6262 50.7071 28.6272 50.7064 28.6283 50.7058C28.6293 50.7052 28.6304 50.7045 28.6315 50.7039C28.6325 50.7033 28.6336 50.7026 28.6346 50.702C28.6357 50.7014 28.6367 50.7007 28.6378 50.7001C28.6388 50.6995 28.6399 50.6989 28.6409 50.6982C28.642 50.6976 28.643 50.697 28.6441 50.6963C28.6451 50.6957 28.6462 50.6951 28.6472 50.6945C28.6482 50.6938 28.6493 50.6932 28.6503 50.6926C28.6551 50.6897 28.6518 50.6917 28.6566 50.6888C28.6624 50.6854 28.6632 50.6848 28.669 50.6814C28.6871 50.6705 28.6755 50.6775 28.6935 50.6667C28.7108 50.6563 28.7724 50.6193 28.7875 50.6103C28.8965 50.5449 28.8558 50.5693 28.9561 50.5091C29.1014 50.422 29.1048 50.4199 29.2155 50.3535C29.2216 50.3498 29.2351 50.3417 29.2406 50.3384C29.2457 50.3354 29.2596 50.327 29.2641 50.3243C29.2732 50.3188 29.2994 50.3032 29.3063 50.299C29.3218 50.2897 29.3642 50.2642 29.3711 50.2601C29.3775 50.2563 29.3775 50.2563 29.3833 50.2528C29.3863 50.251 29.3859 50.2512 29.3888 50.2495C29.3898 50.2489 29.3903 50.2486 29.3913 50.248C29.3918 50.2477 29.3934 50.2467 29.3938 50.2465C29.4025 50.2413 29.3946 50.246 29.4027 50.2411C29.4066 50.2388 29.4067 50.2388 29.41 50.2368C29.4152 50.2336 29.4167 50.2327 29.4198 50.2309C29.4212 50.2301 29.4213 50.23 29.4222 50.2295C29.4222 50.2294 29.4223 50.2294 29.4223 50.2294C29.4223 50.2294 29.4223 50.2294 29.4224 50.2293C29.4224 50.2293 29.4224 50.2293 29.4225 50.2293C29.4225 50.2293 29.4225 50.2293 29.4225 50.2293C29.4227 50.2291 29.4226 50.2292 29.4228 50.2291C29.4228 50.2291 29.4229 50.229 29.4229 50.229C29.423 50.229 29.423 50.229 29.423 50.229C29.423 50.229 29.423 50.229 29.423 50.229C29.423 50.229 29.423 50.229 28.394 48.514C27.365 46.799 27.365 46.799 27.365 46.799C27.365 46.799 27.365 46.799 27.365 46.799C27.365 46.799 27.365 46.799 27.365 46.799C27.365 46.799 27.365 46.799 27.365 46.799C27.3649 46.799 27.3649 46.7991 27.3649 46.7991C27.3649 46.7991 27.3649 46.7991 27.3649 46.7991C27.3649 46.7991 27.3649 46.7991 27.3648 46.7991C27.3648 46.7991 27.3648 46.7991 27.3648 46.7991C27.3647 46.7992 27.3644 46.7993 27.3642 46.7995C27.3639 46.7997 27.3637 46.7998 27.3632 46.8001C27.3621 46.8008 27.363 46.8002 27.3618 46.801C27.3606 46.8017 27.3594 46.8023 27.3577 46.8034C27.3565 46.8041 27.3538 46.8058 27.352 46.8068C27.3422 46.8127 27.3316 46.8191 27.3131 46.8301C27.2693 46.8564 27.2359 46.8765 27.1575 46.9235C27.1344 46.9374 27.0725 46.9745 27.0408 46.9935C27.0396 46.9943 26.9761 47.0324 26.9727 47.0344C26.956 47.0444 26.9169 47.0679 26.8981 47.0791C26.8496 47.1082 26.6181 47.2472 26.535 47.297L28.593 50.727ZM28.394 50.514H29.39V46.514H28.394V50.514ZM29.39 50.514C29.1748 50.514 29.0417 50.4623 29.0207 50.454C28.9957 50.4439 29.0237 50.4522 29.1106 50.5101L31.3294 47.1819C30.8978 46.8941 30.2125 46.514 29.39 46.514V50.514ZM29.5875 50.7433C29.4941 50.7122 29.3544 50.6429 29.2208 50.5092C29.0871 50.3756 29.0178 50.2359 28.9866 50.1425L32.7814 48.8775C32.4716 47.9483 31.7817 47.2584 30.8525 46.9486L29.5875 50.7433ZM29.9895 51.2988L30.3215 51.4648L32.1105 47.8872L31.7785 47.7212L29.9895 51.2988ZM29.4442 50.6037L66.2962 120.988L69.8398 119.132L32.9878 48.7483L29.4442 50.6037ZM66.3835 121.138L69.0395 125.288L72.4085 123.132L69.7525 118.982L66.3835 121.138ZM69.033 125.278C70.482 127.572 72.1835 129.377 74.177 130.573L76.235 127.143C74.9085 126.347 73.622 125.053 72.415 123.142L69.033 125.278ZM74.3116 130.647C76.5002 131.741 79.5305 132.186 83.174 132.186V128.186C79.7348 128.186 77.4532 127.746 76.1004 127.069L74.3116 130.647ZM83.174 132.186H91.474V128.186H83.174V132.186ZM91.474 132.186C91.5003 132.186 91.5102 132.189 91.508 132.188C91.5053 132.188 91.4989 132.186 91.4926 132.182C91.4865 132.179 91.4892 132.18 91.5009 132.189C91.5131 132.2 91.5378 132.222 91.5723 132.265L94.6957 129.767C93.9029 128.776 92.791 128.186 91.474 128.186V132.186ZM91.7198 132.43C91.7594 132.47 91.77 132.493 91.7751 132.506C91.781 132.521 91.798 132.569 91.798 132.676H95.798C95.798 131.517 95.3905 130.444 94.5482 129.602L91.7198 132.43ZM91.798 132.676C91.798 132.783 91.781 132.831 91.7751 132.846C91.77 132.859 91.7594 132.882 91.7198 132.922L94.5482 135.75C95.3905 134.908 95.798 133.835 95.798 132.676H91.798ZM91.7198 132.922C91.6801 132.961 91.6568 132.972 91.6442 132.977C91.6293 132.983 91.5806 133 91.474 133V137C92.6327 137 93.706 136.592 94.5482 135.75L91.7198 132.922ZM91.474 133H83.174V137H91.474V133ZM83.174 133C79.379 133 76.365 132.418 74.0473 131.356L72.3807 134.992C75.375 136.365 79.001 137 83.174 137V133ZM74.1391 131.401C71.9724 130.27 70.0023 128.391 68.2665 125.634L64.8815 127.766C66.9084 130.985 69.3649 133.422 72.2889 134.947L74.1391 131.401ZM68.2381 125.591L65.5821 121.607L62.2539 123.825L64.9099 127.809L68.2381 125.591ZM65.918 122.716V122.55H61.918V122.716H65.918ZM65.6914 121.625L33.3214 59.5413L29.7746 61.3906L62.1446 123.475L65.6914 121.625ZM29.548 60.466V132.676H33.548V60.466H29.548ZM29.548 132.676C29.548 132.702 29.5454 132.712 29.5459 132.71C29.5465 132.707 29.5485 132.701 29.5516 132.695C29.5547 132.689 29.5544 132.691 29.5447 132.703C29.5345 132.715 29.5117 132.74 29.4686 132.774L31.9674 135.898C32.9585 135.105 33.548 133.993 33.548 132.676H29.548ZM29.3038 132.922C29.2641 132.961 29.2408 132.972 29.2282 132.977C29.2133 132.983 29.1646 133 29.058 133V137C30.2167 137 31.29 136.592 32.1322 135.75L29.3038 132.922ZM29.058 133H4.324V137H29.058V133ZM4.324 133C4.21743 133 4.16869 132.983 4.15378 132.977C4.1412 132.972 4.11787 132.961 4.07821 132.922L1.24979 135.75C2.09204 136.592 3.16528 137 4.324 137V133ZM4.07821 132.922C4.03856 132.882 4.02798 132.859 4.02295 132.846C4.01699 132.831 4 132.783 4 132.676H0C0 133.835 0.407529 134.908 1.24979 135.75L4.07821 132.922ZM4 132.676V4.524H0V132.676H4ZM4 4.524C4 4.41743 4.01699 4.36868 4.02295 4.35377C4.02799 4.34119 4.03856 4.31785 4.07821 4.2782L1.24979 1.44978C0.407526 2.29204 0 3.36527 0 4.524H4ZM4.0782 4.27821C4.11786 4.23856 4.14119 4.22798 4.15377 4.22295C4.16869 4.21699 4.21743 4.2 4.324 4.2V0.199998C3.16528 0.199998 2.09206 0.607518 1.2498 1.44977L4.0782 4.27821ZM4.324 4.2H23.248V0.199998H4.324V4.2ZM23.248 4.2C25.8075 4.2 27.8964 4.61015 29.5737 5.35562L31.1983 1.70037C28.8916 0.675176 26.2218 0.199998 23.248 0.199998V4.2ZM29.6946 5.40468C31.5697 6.09551 32.9359 6.99081 33.8917 8.03344L36.8403 5.33054C35.3614 3.71718 33.4076 2.50982 31.0774 1.65131L29.6946 5.40468ZM33.9518 8.0962C35.1095 9.25387 36.276 10.8568 37.4316 12.9578L40.9364 11.0302C39.6573 8.7045 38.2785 6.76611 36.7802 5.26778L33.9518 8.0962ZM37.4333 12.9609L87.3993 103.431L90.9007 101.497L40.9347 11.0271L37.4333 12.9609ZM91.15 102.464V7.014H87.15V102.464H91.15ZM89.15 5.014H68.4V9.014H89.15V5.014ZM66.4 7.014V34.902H70.4V7.014H66.4ZM66.4 34.902C66.4 35.0086 66.383 35.0573 66.377 35.0722C66.372 35.0848 66.3614 35.1081 66.3218 35.1478L69.1502 37.9762C69.9925 37.134 70.4 36.0607 70.4 34.902H66.4ZM66.3218 35.1478C66.2821 35.1874 66.2588 35.198 66.2462 35.203C66.2313 35.209 66.1826 35.226 66.076 35.226V39.226C67.2347 39.226 68.308 38.8185 69.1502 37.9762L66.3218 35.1478ZM66.076 35.226C65.9789 35.226 65.8405 35.2042 65.6424 35.1051L63.8536 38.6829C64.5408 39.0265 65.2878 39.226 66.076 39.226V35.226ZM65.8574 35.2299C65.7451 35.155 65.657 35.0669 65.5821 34.9546L62.2539 37.1734C62.6217 37.7251 63.0869 38.1903 63.6386 38.5581L65.8574 35.2299ZM65.5821 34.9546C65.5839 34.9573 65.5864 34.9615 65.5887 34.9665C65.5898 34.9688 65.5906 34.9709 65.5912 34.9725C65.5915 34.9733 65.5917 34.9739 65.5918 34.9744C65.592 34.9748 65.5921 34.9751 65.5921 34.9751C65.592 34.975 65.592 34.9748 65.5918 34.9742C65.5917 34.9736 65.5915 34.9727 65.5912 34.9714C65.5907 34.969 65.59 34.965 65.5892 34.9593C65.5877 34.948 65.586 34.9293 65.586 34.902H61.586C61.586 35.6946 61.7899 36.4774 62.2539 37.1734L65.5821 34.9546ZM65.586 34.902V4.524H61.586V34.902H65.586ZM65.586 4.524C65.586 4.41743 65.603 4.36869 65.609 4.35377C65.614 4.34119 65.6246 4.31785 65.6642 4.2782L62.8358 1.44978C61.9935 2.29204 61.586 3.36527 61.586 4.524H65.586ZM65.4994 4.42573C65.7237 4.24632 65.8978 4.2 66.076 4.2V0.199998C64.9262 0.199998 63.883 0.596339 63.0006 1.30224L65.4994 4.42573ZM66.076 4.2H91.474V0.199998H66.076V4.2ZM91.474 4.2C91.5806 4.2 91.6293 4.21699 91.6442 4.22295C91.6568 4.22798 91.6801 4.23856 91.7198 4.27821L94.5482 1.44977C93.7059 0.607519 92.6327 0.199998 91.474 0.199998V4.2ZM91.7198 4.2782C91.7594 4.31785 91.77 4.34119 91.7751 4.35377C91.781 4.36869 91.798 4.41743 91.798 4.524H95.798C95.798 3.36527 95.3905 2.29204 94.5482 1.44978L91.7198 4.2782ZM91.798 4.524V111.594H95.798V4.524H91.798ZM91.798 111.594V112.092H95.798V111.594H91.798ZM91.798 112.092C91.798 111.877 91.8497 111.744 91.8581 111.723C91.8681 111.698 91.8598 111.726 91.8019 111.813L95.1301 114.031C95.4178 113.6 95.798 112.915 95.798 112.092H91.798ZM91.5686 112.29C91.5998 112.196 91.6691 112.056 91.8028 111.923C91.9364 111.789 92.0761 111.72 92.1695 111.689L93.4345 115.483C94.3637 115.174 95.0536 114.484 95.3634 113.554L91.5686 112.29ZM92.802 113.586C91.3878 112.172 91.3878 112.172 91.3878 112.172C91.3878 112.172 91.3878 112.172 91.3878 112.172C91.3878 112.172 91.3878 112.172 91.3878 112.172C91.3878 112.172 91.3878 112.172 91.3878 112.172C91.3877 112.172 91.3878 112.172 91.3877 112.172C91.3876 112.172 91.3873 112.172 91.3872 112.172C91.3866 112.173 91.3863 112.173 91.3852 112.174C91.3841 112.175 91.3835 112.176 91.382 112.178C91.382 112.178 91.381 112.179 91.381 112.179C91.3808 112.179 91.3806 112.179 91.3804 112.179C91.3801 112.179 91.3805 112.179 91.3802 112.179C91.3801 112.179 91.3801 112.18 91.38 112.18C91.38 112.18 91.3799 112.18 91.3799 112.18C91.3783 112.181 91.3791 112.18 91.3775 112.182C91.3736 112.186 91.3571 112.203 91.3463 112.213C91.3266 112.233 91.3444 112.215 91.323 112.237C91.3171 112.242 91.3156 112.244 91.3094 112.25C91.3063 112.253 91.298 112.262 91.2944 112.265C91.2873 112.272 91.2858 112.274 91.2782 112.281C91.2668 112.293 91.2726 112.287 91.2607 112.299C91.2529 112.307 91.2313 112.328 91.2218 112.338L94.0502 115.166C94.1054 115.111 94.0745 115.142 94.1228 115.094C94.1298 115.087 94.1746 115.042 94.1747 115.042C94.1885 115.028 94.1808 115.036 94.1928 115.024C94.2062 115.01 94.1942 115.022 94.2058 115.011C94.2081 115.008 94.2085 115.008 94.2104 115.006C94.2108 115.006 94.2108 115.006 94.2113 115.005C94.2117 115.005 94.2118 115.005 94.2121 115.004C94.2122 115.004 94.2122 115.004 94.2122 115.004C94.2123 115.004 94.2123 115.004 94.2123 115.004C94.2124 115.004 94.2124 115.004 94.2125 115.004C94.2126 115.004 94.2127 115.004 94.2127 115.004C94.2128 115.004 94.2128 115.004 94.2128 115.004C94.2128 115.004 94.2129 115.004 94.2129 115.004C94.213 115.003 94.213 115.003 94.2131 115.003C94.2131 115.003 94.2131 115.003 94.2132 115.003C94.2132 115.003 94.2132 115.003 94.2133 115.003C94.2133 115.003 94.2133 115.003 94.2133 115.003C94.2134 115.003 94.2134 115.003 94.2134 115.003C94.2135 115.003 94.2135 115.003 94.2136 115.003C94.2144 115.002 94.214 115.002 94.2147 115.002C94.2149 115.002 94.2155 115.001 94.2155 115.001C94.2157 115.001 94.2157 115.001 94.2158 115.001C94.2159 115 94.2159 115.001 94.216 115C94.2161 115 94.2161 115 94.2161 115C94.2161 115 94.2161 115 94.2161 115C94.2161 115 94.2161 115 94.2161 115C94.2161 115 94.2161 115 94.2161 115C94.2162 115 94.2161 115 94.2162 115C94.2162 115 94.2162 115 94.2162 115C94.2162 115 94.2162 115 94.2162 115C94.2162 115 94.2162 115 94.2162 115C94.2162 115 94.2162 115 94.2162 115C94.2162 115 94.2162 115 92.802 113.586ZM91.5266 112.088C91.4641 112.13 91.4153 112.16 91.3788 112.182C91.3411 112.205 91.3248 112.213 91.3266 112.212C91.3281 112.211 91.338 112.206 91.3553 112.199C91.3722 112.192 91.4021 112.18 91.4433 112.166C91.4834 112.153 91.5459 112.134 91.6265 112.118C91.705 112.102 91.824 112.084 91.972 112.084V116.084C92.537 116.084 92.9891 115.853 93.1154 115.79C93.3311 115.682 93.5467 115.549 93.7454 115.416L91.5266 112.088ZM91.972 112.084H91.308V116.084H91.972V112.084ZM91.308 112.084C91.3684 112.084 91.4156 112.095 91.4425 112.104C91.4668 112.112 91.4598 112.113 91.4214 112.088L89.2026 115.416C89.7959 115.812 90.5074 116.084 91.308 116.084V112.084ZM91.2064 111.963C91.1396 111.93 91.0917 111.903 91.0593 111.883C91.0265 111.862 91.0162 111.854 91.0219 111.858C91.027 111.862 91.058 111.887 91.1013 111.937C91.1446 111.987 91.2096 112.071 91.2709 112.194L87.6931 113.982C88.1131 114.822 88.9116 115.288 89.4176 115.541L91.2064 111.963ZM91.2709 112.194L91.1049 111.862L87.5271 113.65L87.6931 113.982L91.2709 112.194ZM91.0674 111.79L36.7854 13.3522L33.2826 15.2838L87.5646 113.722L91.0674 111.79ZM36.779 13.3408C35.1564 10.4432 33.3414 8.21446 31.249 6.95901L29.191 10.389C30.4186 11.1255 31.813 12.6594 33.289 15.2952L36.779 13.3408ZM31.3825 7.04653C29.3408 5.58818 26.5244 5.014 23.248 5.014V9.014C26.169 9.014 28.0005 9.54647 29.0575 10.3015L31.3825 7.04653Z" fill="#021C4B"/>
</svg>
